# xmcd
#
# Track frame offsets:
#	150
#	14366
#	36355
#	51221
#	62865
#	77530
#	89526
#	103795
#	120749
#	143211
#	168866
#	189105
#	202004
#	212841
#
# Disc length: 3131 seconds
#
# Revision: 1
# Processed by: cddbd v1.5.1PL0 Copyright (c) Steve Scherf et al.
# Submitted via: EasyCDDAExtractor 6.5.5.1
#
DISCID=c30c390e
DTITLE=Samir - La Voz Del Sentimiento
DYEAR=1900
DGENRE=Bolero
TTITLE0=Como Quisiera Decirte
TTITLE1=Un Mundo Diferente - Quisiera
TTITLE2=Olvidarte Nunca
TTITLE3=Poema
TTITLE4=El Camino De La Vida
TTITLE5=Sonia
TTITLE6=Lamparilla
TTITLE7=Y Volver
TTITLE8=Derrumbes - Acuerdate De Mi
TTITLE9=Madrigal - Azabache
TTITLE10=Reconciliemonos - Frivolidad
TTITLE11=Cuando Llora Mi Guitarra
TTITLE12=Tan Mia Y Tan Ajena
TTITLE13=Corazon Pricionero - Tu
EXTD=
EXTT0=
EXTT1=
EXTT2=
EXTT3=
EXTT4=
EXTT5=
EXTT6=
EXTT7=
EXTT8=
EXTT9=
EXTT10=
EXTT11=
EXTT12=
EXTT13=
PLAYORDER=
